<svg xmlns="http://www.w3.org/2000/svg" width="24" height="25" viewBox="0 0 24 25" fill="none">
<path d="M20.5 10.6299H17.61C15.24 10.6299 13.31 8.67577 13.31 6.27615V3.35002C13.31 2.79315 12.86 2.33752 12.31 2.33752H8.07C4.99 2.33752 2.5 4.36252 2.5 7.97715V16.9479C2.5 20.5625 4.99 22.5875 8.07 22.5875H15.93C19.01 22.5875 21.5 20.5625 21.5 16.9479V11.6424C21.5 11.0855 21.05 10.6299 20.5 10.6299ZM12.28 16.2898L10.28 18.3148C10.21 18.3857 10.12 18.4464 10.03 18.4768C9.94 18.5173 9.85 18.5375 9.75 18.5375C9.65 18.5375 9.56 18.5173 9.47 18.4768C9.39 18.4464 9.31 18.3857 9.25 18.3249C9.24 18.3148 9.23 18.3148 9.23 18.3047L7.23 16.2797C6.94 15.986 6.94 15.5 7.23 15.2064C7.52 14.9128 8 14.9128 8.29 15.2064L9 15.9455V11.7031C9 11.288 9.34 10.9438 9.75 10.9438C10.16 10.9438 10.5 11.288 10.5 11.7031V15.9455L11.22 15.2165C11.51 14.9229 11.99 14.9229 12.28 15.2165C12.57 15.5101 12.57 15.9962 12.28 16.2898Z" fill="white"/>
<path d="M17.43 9.23257C18.38 9.2427 19.7 9.2427 20.83 9.2427C21.4 9.2427 21.7 8.56432 21.3 8.15932C19.86 6.6912 17.28 4.04858 15.8 2.55008C15.39 2.13495 14.68 2.41845 14.68 2.99558V6.5292C14.68 8.00745 15.92 9.23257 17.43 9.23257Z" fill="white"/>
</svg>