<svg width="20" height="20" viewBox="0 0 24 25" fill="#A6A6A6" xmlns="http://www.w3.org/2000/svg"><path d="M19.5 9.42502C20.05 9.42502 20.5 8.9694 20.5 8.41252V7.40002C20.5 4.36252 18.97 2.33752 15.5 2.33752H8.5C4.97 2.33752 3.5 4.36252 3.5 7.40002V17.525C3.5 19.8675 4.378 21.6003 6.39398 22.2668C6.69562 22.3665 6.98896 22.1266 6.98786 21.809L6.98 19.55C6.98 17.8693 8.33 16.5125 9.98 16.5125H13.99C15.63 16.5125 16.98 17.8693 16.99 19.5298L17.0058 21.8109C17.0079 22.1279 17.3026 22.3646 17.6028 22.2626C19.5902 21.5871 20.5 19.8561 20.5 17.525V16.3404C20.5 15.8038 20.29 15.2874 19.91 14.9026L19.09 14.0724C18.71 13.6876 18.5 13.1713 18.5 12.6346V10.4375C18.5 9.88065 18.95 9.42502 19.5 9.42502ZM13.97 8.94915H7.97C7.56 8.94915 7.22 8.6049 7.22 8.18977C7.22 7.77465 7.56 7.4304 7.97 7.4304H13.97C14.38 7.4304 14.72 7.77465 14.72 8.18977C14.72 8.6049 14.39 8.94915 13.97 8.94915Z"></path><path d="M16.01 21.5574C16.0155 22.1135 15.5662 22.5673 15.01 22.5673H8.99333C8.44362 22.5673 7.99698 22.1236 7.99335 21.5739L7.97998 19.55C7.97998 18.4363 8.86998 17.525 9.97998 17.525H13.99C15.09 17.525 15.98 18.4261 15.99 19.5399L16.01 21.5574Z"></path></svg>